<mxfile host="app.diagrams.net" agent="Mozilla/5.0 (Macintosh; Intel Mac OS X 10_15_7) AppleWebKit/537.36 (KHTML, like Gecko) Chrome/129.0.0.0 Safari/537.36" version="24.7.5">
  <diagram name="Page-1" id="l_NbQONxhd9BbPZEpP33">
    <mxGraphModel dx="1026" dy="589" grid="1" gridSize="10" guides="1" tooltips="1" connect="1" arrows="1" fold="1" page="1" pageScale="1" pageWidth="850" pageHeight="1100" math="0" shadow="0">
      <root>
        <mxCell id="0" />
        <mxCell id="1" parent="0" />
        <mxCell id="fWe4j2_OuHubxiTej2tS-4" style="edgeStyle=orthogonalEdgeStyle;rounded=0;orthogonalLoop=1;jettySize=auto;html=1;exitX=0;exitY=0.25;exitDx=0;exitDy=0;entryX=1;entryY=0.25;entryDx=0;entryDy=0;" edge="1" parent="1" source="fWe4j2_OuHubxiTej2tS-1" target="fWe4j2_OuHubxiTej2tS-2">
          <mxGeometry relative="1" as="geometry" />
        </mxCell>
        <mxCell id="fWe4j2_OuHubxiTej2tS-1" value="Mobile App" style="rounded=1;whiteSpace=wrap;html=1;" vertex="1" parent="1">
          <mxGeometry x="490" y="410" width="120" height="60" as="geometry" />
        </mxCell>
        <mxCell id="fWe4j2_OuHubxiTej2tS-5" style="edgeStyle=orthogonalEdgeStyle;rounded=0;orthogonalLoop=1;jettySize=auto;html=1;exitX=1;exitY=0.75;exitDx=0;exitDy=0;entryX=0;entryY=0.75;entryDx=0;entryDy=0;" edge="1" parent="1" source="fWe4j2_OuHubxiTej2tS-2" target="fWe4j2_OuHubxiTej2tS-1">
          <mxGeometry relative="1" as="geometry" />
        </mxCell>
        <mxCell id="fWe4j2_OuHubxiTej2tS-11" style="edgeStyle=orthogonalEdgeStyle;rounded=0;orthogonalLoop=1;jettySize=auto;html=1;exitX=0.75;exitY=0;exitDx=0;exitDy=0;entryX=0.75;entryY=1;entryDx=0;entryDy=0;" edge="1" parent="1" source="fWe4j2_OuHubxiTej2tS-2" target="fWe4j2_OuHubxiTej2tS-3">
          <mxGeometry relative="1" as="geometry" />
        </mxCell>
        <mxCell id="fWe4j2_OuHubxiTej2tS-2" value="Backend" style="rounded=1;whiteSpace=wrap;html=1;" vertex="1" parent="1">
          <mxGeometry x="200" y="410" width="210" height="60" as="geometry" />
        </mxCell>
        <mxCell id="fWe4j2_OuHubxiTej2tS-10" style="edgeStyle=orthogonalEdgeStyle;rounded=0;orthogonalLoop=1;jettySize=auto;html=1;exitX=0.25;exitY=1;exitDx=0;exitDy=0;entryX=0.25;entryY=0;entryDx=0;entryDy=0;" edge="1" parent="1" source="fWe4j2_OuHubxiTej2tS-3" target="fWe4j2_OuHubxiTej2tS-2">
          <mxGeometry relative="1" as="geometry" />
        </mxCell>
        <mxCell id="fWe4j2_OuHubxiTej2tS-3" value="OCR&lt;div&gt;(Optical Character Recognition)&lt;/div&gt;" style="rounded=1;whiteSpace=wrap;html=1;" vertex="1" parent="1">
          <mxGeometry x="200" y="230" width="210" height="60" as="geometry" />
        </mxCell>
      </root>
    </mxGraphModel>
  </diagram>
</mxfile>
